<svg xmlns="http://www.w3.org/2000/svg" width="96" height="96" viewBox="0 0 96 96">
    <path fill="#E1215F" fill-rule="nonzero" d="M48 8.063c11.375.25 20.812 4.124 28.313 11.624 7.5 7.5 11.374 16.938 11.624 28.313-.25 11.375-4.124 20.812-11.624 28.313-7.5 7.5-16.938 11.374-28.313 11.624-11.375-.25-20.812-4.124-28.313-11.624-7.5-7.5-11.374-16.938-11.625-28.313.25-11.375 4.125-20.812 11.626-28.313 7.5-7.5 16.937-11.374 28.312-11.625zm14.438 19.874L48 42.376 33.562 27.937l-5.624 5.625L42.374 48 27.937 62.438l5.625 5.624L48 53.626l14.438 14.438 5.624-5.626L53.626 48l14.438-14.438-5.626-5.624z"/>
</svg>
