<svg xmlns="http://www.w3.org/2000/svg" xmlns:xlink="http://www.w3.org/1999/xlink" width="125" height="32" viewBox="0 0 125 32">
    <defs>
        <path id="a" d="M.781.012H14.66v13.61H.781z"/>
        <path id="c" d="M0 0h32v32H0z"/>
    </defs>
    <g fill="none" fill-rule="evenodd">
        <path fill="#23374D" d="M49.842 21.787c.783-.783 1.161-1.782 1.161-2.97 0-1.188-.378-2.187-1.16-2.97-.757-.784-1.702-1.189-2.863-1.189-1.16 0-2.16.405-2.97 1.19-.783.782-1.188 1.781-1.188 2.968 0 1.19.405 2.188 1.188 2.971.81.782 1.81 1.187 2.97 1.187 1.161 0 2.106-.405 2.862-1.187zm-10.017 3.834V6.801h3.24v7.182c.46-1.323 2.106-2.268 4.347-2.268 1.917 0 3.537.675 4.833 2.052 1.323 1.35 1.971 3.024 1.971 5.05 0 2.025-.648 3.7-1.97 5.075-1.297 1.351-2.917 2.026-4.834 2.026-2.24 0-3.888-.945-4.347-2.269v1.972h-3.24zM65.745 21.867c.811-.837 1.215-1.836 1.215-3.05 0-1.216-.404-2.215-1.215-3.025-.81-.837-1.809-1.242-2.997-1.242-1.215 0-2.214.405-3.024 1.242-.783.81-1.188 1.81-1.188 3.024 0 1.215.405 2.214 1.188 3.051.81.811 1.81 1.216 3.024 1.216 1.188 0 2.187-.405 2.997-1.216m-10.422-3.05c0-2.026.73-3.754 2.16-5.13 1.431-1.378 3.186-2.08 5.265-2.08 2.08 0 3.834.702 5.266 2.08 1.43 1.376 2.16 3.104 2.16 5.13 0 2.025-.73 3.752-2.16 5.13-1.432 1.377-3.187 2.078-5.266 2.078s-3.834-.7-5.265-2.079c-1.43-1.377-2.16-3.104-2.16-5.13M72.82 25.621V14.955h-1.756v-2.943h1.755v-5.21h3.24v5.21h2.943v2.943H76.06v10.666zM90.45 21.787c.783-.783 1.161-1.782 1.161-2.97 0-1.188-.378-2.187-1.16-2.97-.757-.784-1.702-1.189-2.863-1.189-1.16 0-2.16.405-2.97 1.19-.783.782-1.189 1.781-1.189 2.968 0 1.19.406 2.188 1.19 2.971.81.782 1.81 1.187 2.97 1.187 1.16 0 2.105-.405 2.861-1.187zm-10.018 3.834V6.801h3.241v7.182c.46-1.323 2.106-2.268 4.347-2.268 1.917 0 3.537.675 4.833 2.052 1.324 1.35 1.971 3.024 1.971 5.05 0 2.025-.647 3.7-1.97 5.075-1.297 1.351-2.917 2.026-4.834 2.026-2.24 0-3.888-.945-4.347-2.269v1.972h-3.24zM106.353 21.867c.81-.837 1.216-1.836 1.216-3.05 0-1.216-.406-2.215-1.216-3.025-.81-.837-1.808-1.242-2.996-1.242-1.216 0-2.215.405-3.025 1.242-.783.81-1.188 1.81-1.188 3.024 0 1.215.404 2.214 1.188 3.051.81.811 1.81 1.216 3.025 1.216 1.188 0 2.186-.405 2.996-1.216m-10.422-3.05c0-2.026.73-3.754 2.16-5.13 1.431-1.378 3.187-2.08 5.266-2.08s3.834.702 5.264 2.08c1.431 1.376 2.16 3.104 2.16 5.13 0 2.025-.729 3.752-2.16 5.13-1.43 1.377-3.185 2.078-5.264 2.078-2.08 0-3.835-.7-5.266-2.079-1.43-1.377-2.16-3.104-2.16-5.13"/>
        <g transform="translate(110 12)">
            <mask id="b" fill="#fff">
                <use xlink:href="#a"/>
            </mask>
            <path fill="#23374D" d="M.781 13.621l5.157-7.183L1.24.012h3.51L7.72 4.09 10.664.012h3.537l-4.698 6.4 5.157 7.21h-3.483L7.72 8.813l-3.456 4.807z" mask="url(#b)"/>
        </g>
        <g>
            <mask id="d" fill="#fff">
                <use xlink:href="#c"/>
            </mask>
            <path fill="#1089FF" d="M22.154 0H9.846C4.408 0 0 4.408 0 9.846v12.308C0 27.592 4.408 32 9.846 32H32V9.846C32 4.408 27.592 0 22.154 0m0 3.692a6.16 6.16 0 0 1 6.154 6.154v18.462H9.846a6.16 6.16 0 0 1-6.153-6.154V9.846a6.16 6.16 0 0 1 6.153-6.154h12.308" mask="url(#d)"/>
        </g>
        <path fill="#1089FF" d="M11.332 16a1.863 1.863 0 1 1-3.726 0 1.863 1.863 0 0 1 3.726 0"/>
        <path fill="#1089FF" d="M9.469 14.906a1.095 1.095 0 1 0 .001 2.19 1.095 1.095 0 0 0-.001-2.19m0 3.727A2.636 2.636 0 0 1 6.836 16a2.636 2.636 0 0 1 2.633-2.633A2.636 2.636 0 0 1 12.102 16a2.636 2.636 0 0 1-2.633 2.633M17.864 16a1.863 1.863 0 1 1-3.726 0 1.863 1.863 0 0 1 3.726 0"/>
        <path fill="#1089FF" d="M16 14.906a1.095 1.095 0 1 0 .002 2.19 1.095 1.095 0 0 0-.002-2.19m0 3.727A2.636 2.636 0 0 1 13.367 16 2.636 2.636 0 0 1 16 13.367 2.636 2.636 0 0 1 18.633 16 2.636 2.636 0 0 1 16 18.633M24.395 16a1.863 1.863 0 1 1-3.726 0 1.863 1.863 0 0 1 3.726 0"/>
        <path fill="#1089FF" d="M22.531 14.906a1.095 1.095 0 1 0 .002 2.19 1.095 1.095 0 0 0-.002-2.19m0 3.727A2.636 2.636 0 0 1 19.898 16a2.636 2.636 0 0 1 2.633-2.633A2.636 2.636 0 0 1 25.164 16a2.636 2.636 0 0 1-2.633 2.633"/>
    </g>
</svg>
