<svg xmlns="http://www.w3.org/2000/svg" width="94" height="24" viewBox="0 0 94 24">
    <g fill="#FFF" fill-rule="evenodd">
        <path d="M37.382 16.34c.587-.587.87-1.336.87-2.228 0-.89-.283-1.64-.87-2.227-.567-.587-1.276-.891-2.146-.891-.872 0-1.621.304-2.228.89-.587.588-.891 1.338-.891 2.228 0 .892.304 1.64.89 2.228.608.588 1.357.892 2.229.892.87 0 1.579-.304 2.146-.892zm-7.513 2.876V5.1h2.43v5.386c.344-.992 1.58-1.7 3.26-1.7 1.438 0 2.653.506 3.625 1.539.992 1.012 1.478 2.268 1.478 3.786 0 1.519-.486 2.775-1.478 3.808-.972 1.012-2.187 1.519-3.625 1.519-1.68 0-2.916-.71-3.26-1.702v1.479h-2.43zM49.31 16.4c.606-.627.91-1.377.91-2.288 0-.91-.304-1.66-.91-2.268-.608-.628-1.357-.932-2.249-.932-.91 0-1.66.304-2.268.932-.588.608-.89 1.357-.89 2.268 0 .911.302 1.661.89 2.288.607.608 1.357.911 2.268.911.892 0 1.641-.303 2.248-.91m-7.817-2.289c0-1.519.547-2.815 1.62-3.848 1.073-1.032 2.39-1.559 3.95-1.559s2.875.527 3.948 1.56c1.073 1.032 1.62 2.328 1.62 3.847 0 1.518-.547 2.815-1.62 3.848s-2.389 1.56-3.949 1.56c-1.559 0-2.876-.527-3.949-1.56s-1.62-2.33-1.62-3.848M54.615 19.216v-8h-1.316V9.01h1.316V5.1h2.43v3.908h2.207v2.208h-2.207v7.999zM67.837 16.34c.588-.587.871-1.336.871-2.228 0-.89-.283-1.64-.87-2.227-.567-.587-1.276-.891-2.147-.891-.87 0-1.62.304-2.228.89-.587.588-.89 1.338-.89 2.228 0 .892.303 1.64.89 2.228a3.102 3.102 0 0 0 2.228.892c.871 0 1.58-.304 2.146-.892zm-7.513 2.876V5.1h2.43v5.386c.345-.992 1.58-1.7 3.261-1.7 1.437 0 2.653.506 3.625 1.539.992 1.012 1.478 2.268 1.478 3.786 0 1.519-.486 2.775-1.478 3.808-.972 1.012-2.188 1.519-3.625 1.519-1.68 0-2.916-.71-3.26-1.702v1.479h-2.43zM79.765 16.4c.607-.627.911-1.377.911-2.288 0-.91-.304-1.66-.91-2.268-.608-.628-1.357-.932-2.249-.932-.91 0-1.66.304-2.268.932-.588.608-.89 1.357-.89 2.268 0 .911.302 1.661.89 2.288.608.608 1.357.911 2.268.911.892 0 1.641-.303 2.248-.91m-7.817-2.289c0-1.519.546-2.815 1.62-3.848 1.074-1.032 2.39-1.559 3.95-1.559s2.875.527 3.948 1.56c1.073 1.032 1.62 2.328 1.62 3.847 0 1.518-.547 2.815-1.62 3.848s-2.389 1.56-3.949 1.56-2.875-.527-3.949-1.56c-1.074-1.033-1.62-2.33-1.62-3.848M83.085 19.216l3.869-5.387-3.523-4.82h2.633l2.227 3.058 2.207-3.058h2.652l-3.524 4.8 3.868 5.407h-2.612l-2.592-3.604-2.593 3.604zM16.615 0h-9.23A7.385 7.385 0 0 0 0 7.385v9.23A7.385 7.385 0 0 0 7.385 24H24V7.385A7.385 7.385 0 0 0 16.615 0m0 2.769a4.622 4.622 0 0 1 4.616 4.616V21.23H7.385a4.62 4.62 0 0 1-4.616-4.615v-9.23a4.622 4.622 0 0 1 4.616-4.616h9.23"/>
        <path d="M8.499 12a1.397 1.397 0 1 1-2.794 0 1.397 1.397 0 0 1 2.794 0"/>
        <path d="M7.102 11.18a.822.822 0 1 0 0 1.642.822.822 0 0 0 0-1.643m0 2.795A1.976 1.976 0 0 1 5.127 12c0-1.089.886-1.975 1.975-1.975s1.975.886 1.975 1.975a1.976 1.976 0 0 1-1.975 1.974M13.398 12a1.397 1.397 0 1 1-2.795 0 1.397 1.397 0 0 1 2.795 0"/>
        <path d="M12 11.18a.822.822 0 1 0 .001 1.642A.822.822 0 0 0 12 11.18m0 2.795A1.976 1.976 0 0 1 10.025 12c0-1.089.886-1.975 1.975-1.975s1.975.886 1.975 1.975A1.976 1.976 0 0 1 12 13.974M18.296 12a1.397 1.397 0 1 1-2.794 0 1.397 1.397 0 0 1 2.794 0"/>
        <path d="M16.898 11.18a.822.822 0 1 0 .002 1.642.822.822 0 0 0-.002-1.643m0 2.795A1.976 1.976 0 0 1 14.924 12c0-1.089.886-1.975 1.974-1.975 1.09 0 1.976.886 1.976 1.975a1.976 1.976 0 0 1-1.976 1.974"/>
    </g>
</svg>
