<svg xmlns="http://www.w3.org/2000/svg" width="96" height="96" viewBox="0 0 96 96">
    <path fill="#13D696" fill-rule="nonzero" d="M48 8.063c11.375.25 20.812 4.124 28.313 11.624 7.5 7.5 11.374 16.938 11.624 28.313-.25 11.375-4.124 20.812-11.624 28.313-7.5 7.5-16.938 11.374-28.313 11.624-11.375-.25-20.812-4.124-28.313-11.624-7.5-7.5-11.374-16.938-11.625-28.313.25-11.375 4.125-20.812 11.626-28.313 7.5-7.5 16.937-11.374 28.312-11.625zm18.375 24.374L44.062 54.75 31.688 42.375 26.063 48l18 18L72 38.062l-5.625-5.624z"/>
</svg>
